<svg width="33" height="32" viewBox="0 0 33 32" fill="none" xmlns="http://www.w3.org/2000/svg">
<g clip-path="url(#clip0_26736_10)">
<g clip-path="url(#clip1_26736_10)">
<path d="M15.96 1.45999L16.48 4.41399C16.828 6.38399 13.872 6.90399 13.526 4.93399L13.006 1.97999C12.658 0.00998449 15.614 -0.510015 15.96 1.45999ZM26.546 4.98199L24.826 7.43999C23.678 9.07799 21.222 7.35799 22.368 5.71999L24.088 3.26199C25.236 1.62399 27.692 3.34399 26.546 4.98199ZM5.98404 6.45399L8.44204 8.17399C10.08 9.32199 8.36004 11.778 6.72204 10.632L4.26404 8.91199C2.62604 7.76399 4.34604 5.30799 5.98404 6.45399ZM27.282 21.366L29.74 23.086C31.378 24.234 29.658 26.69 28.02 25.544L25.562 23.824C23.924 22.676 25.644 20.22 27.282 21.366ZM31.542 14.958L28.588 15.478C26.618 15.826 26.098 12.87 28.068 12.524L31.022 12.004C32.992 11.656 33.512 14.612 31.542 14.958Z" fill="#FFB300"/>
</g>
</g>
<g clip-path="url(#clip2_26736_10)">
<path d="M18.5879 29.8155L17.9997 26.8743C17.6062 24.9129 20.5494 24.3247 20.9409 26.2861L21.5291 29.2273C21.9226 31.1887 18.9794 31.777 18.5879 29.8155ZM7.92325 26.5394L9.58591 24.0423C10.6957 22.3781 13.1908 24.0408 12.0831 25.7049L10.4204 28.2021C9.31059 29.8662 6.81545 28.2035 7.92325 26.5394ZM28.4457 24.592L25.9485 22.9294C24.2844 21.8196 25.9471 19.3244 27.6112 20.4322L30.1083 22.0949C31.7725 23.2047 30.1098 25.6998 28.4457 24.592ZM6.80837 10.1768L4.31123 8.51413C2.64711 7.40434 4.30982 4.9092 5.9739 6.01699L8.47104 7.67966C10.1352 8.78946 8.47244 11.2846 6.80837 10.1768ZM2.69777 16.6816L5.63895 16.0934C7.60037 15.7 8.18862 18.6431 6.22715 19.0346L3.28598 19.6228C1.32455 20.0163 0.736301 17.0731 2.69777 16.6816Z" fill="#FFB300"/>
<path d="M17 24C21.4183 24 25 20.4183 25 16C25 11.5817 21.4183 8 17 8C12.5818 8 9.00003 11.5817 9.00003 16C9.00003 20.4183 12.5818 24 17 24Z" fill="url(#paint0_linear_26736_10)"/>
</g>
<defs>
<linearGradient id="paint0_linear_26736_10" x1="25" y1="8" x2="13.7832" y2="19.0723" gradientUnits="userSpaceOnUse">
<stop stop-color="#FFB301"/>
<stop offset="1" stop-color="#FFC533"/>
</linearGradient>
<clipPath id="clip0_26736_10">
<rect width="30" height="26" fill="white" transform="translate(3.00003)"/>
</clipPath>
<clipPath id="clip1_26736_10">
<rect width="30" height="26" fill="white" transform="translate(3.00003)"/>
</clipPath>
<clipPath id="clip2_26736_10">
<rect width="30" height="26" fill="white" transform="translate(31.5782 30.9753) rotate(178.674)"/>
</clipPath>
</defs>
</svg>
